<?xml version="1.0" encoding="utf-8"?>
<!-- Generator: Adobe Illustrator 17.0.0, SVG Export Plug-In . SVG Version: 6.00 Build 0)  -->
<!DOCTYPE svg PUBLIC "-//W3C//DTD SVG 1.1//EN" "http://www.w3.org/Graphics/SVG/1.1/DTD/svg11.dtd">
<svg version="1.1" id="Layer_1" xmlns="http://www.w3.org/2000/svg" xmlns:xlink="http://www.w3.org/1999/xlink" x="0px" y="0px"
	 width="2000px" height="2000px" viewBox="0 0 2000 2000" enable-background="new 0 0 2000 2000" xml:space="preserve">
<g>
	<g>
		<g>
			<path fill="#020202" d="M1105.161,1437.744c0,0.253-0.032,0.497-0.038,0.748c0.006,0.251,0.038,0.495,0.038,0.748V1437.744z"/>
		</g>
		<g>
			<path fill="#020202" d="M905.608,1439.239c0-0.253,0.031-0.496,0.038-0.748c-0.007-0.25-0.038-0.495-0.038-0.748V1439.239z"/>
		</g>
		<g>
			<path fill="#020202" d="M1105.124,1438.491c-0.401-15.623-13.164-28.173-28.883-28.173H934.529
				c-15.72,0-28.483,12.549-28.883,28.173c0.4,15.624,13.163,28.173,28.883,28.173h141.711
				C1091.96,1466.665,1104.723,1454.115,1105.124,1438.491z"/>
		</g>
		<g>
			<path fill="#020202" d="M1005.054,916.974c-106.925,0-193.915,86.99-193.915,193.916c0,41.816,13.669,82.649,38.673,116.054
				l-0.359,0.312l6.55,7.67c0.462,0.544,43.653,52.045,48.843,131.529l0.006-0.003c0,0,2.565,25.699,25.34,25.699h1.927
				c6.637-0.212,28.104-2.776,26.851-27.129c-4.611-80.739-40.872-137.48-55.484-157.268l0.209-0.351l-4.022-4.682l-2.429-4.36
				h-1.129l-2.567-3.18c-18.313-24.201-28.311-53.811-28.311-84.291c0-77.098,62.722-139.821,139.819-139.821
				s139.822,62.723,139.822,139.821c0,31.068-10.337,61.305-29.2,85.68h-0.378l-3.098,4.314c-0.212,0.257-0.452,0.551-0.717,0.88
				l-2.367,2.877l0.031,0.093c-13.262,17.283-53.609,76.629-57.753,162.944c0.388,21.887,20.509,24.27,26.896,24.474h1.927
				c22.775,0,25.34-25.699,25.34-25.699l0.076,0.047c5.176-79.509,48.382-131.028,48.822-131.545l6.592-7.617l-0.635-0.557
				c24.929-33.378,38.56-74.155,38.56-115.89C1198.973,1003.964,1111.982,916.974,1005.054,916.974z"/>
		</g>
		<g>
			<path d="M1032.744,1507.82c0,16.068-13.074,29.141-29.144,29.141c-16.07,0-29.144-13.073-29.144-29.141
				c0-14.375-11.653-26.029-26.029-26.029c-14.376,0-26.029,11.653-26.029,26.029c0,44.774,36.428,81.198,81.201,81.198
				c44.773,0,81.201-36.424,81.201-81.198c0-14.375-11.652-26.029-26.029-26.029
				C1044.397,1481.791,1032.744,1493.444,1032.744,1507.82z"/>
		</g>
		<g>
			<path fill="#020202" d="M969.886,1255.728l80.475-112.151c4.276-5.969,4.686-13.942,1.04-20.316
				c-3.651-6.377-10.738-10.061-18.049-9.387l-41.068,3.762l64.322-86.393c8.66-19.616-9.462-8.803-9.467-8.8l-110.213,106.54
				c-4.421,5.948-4.941,13.969-1.314,20.439c3.631,6.465,10.744,10.205,18.124,9.529l42.04-3.851l-33.589,95.684
				C962.182,1250.8,956.489,1270.67,969.886,1255.728z"/>
		</g>
	</g>
	<path fill="#020202" d="M1509.25,1464.372l-360.728-855.54V351.2h31.444c19.192,0,34.621-12.598,35.132-29.005
		c-0.51-16.082-15.94-28.68-35.132-28.68h-93.257v27.72l0.045,0.683c0.605,4.485,0.911,9.013,0.911,13.463v285.191l365.551,866.99
		l0.51,1.131c0.31,0.655,30.544,66.056,2.567,110.163c-18.862,29.748-61.738,45.983-127.259,48.245l-657.881,0.005
		c-65.696-2.266-108.572-18.501-127.434-48.255c-27.862-43.917,2.236-109.468,2.512-110.058l0.355-0.745l314.739-740.592
		l51.021-120.049v-99.937h-0.966V293.514h-91.336c-19.192,0-34.626,12.598-35.132,29.005c0.505,16.082,15.94,28.68,35.132,28.68
		h31.444v264.378l-360.633,848.589c-4.508,9.651-42.796,96.294,0.926,165.647c30.214,47.925,90.001,73.715,177.88,76.657
		l660.252,0.015l0.605-0.02c87.709-2.937,147.496-28.728,177.705-76.652C1551.912,1560.521,1513.673,1473.852,1509.25,1464.372z"/>
</g>
</svg>
